<?xml version="1.0" encoding="utf-8"?>
<!-- Generator: Adobe Illustrator 19.0.0, SVG Export Plug-In . SVG Version: 6.00 Build 0)  -->
<svg version="1.1" id="Capa_1" xmlns="http://www.w3.org/2000/svg" xmlns:xlink="http://www.w3.org/1999/xlink" x="0px" y="0px"
	 viewBox="0 0 620.8 620.8" style="enable-background:new 0 0 620.8 620.8;" xml:space="preserve">
<style type="text/css">
	.st0{display:none;fill:#FFFFFF;}
	.st1{fill:#FFFFFF;}
</style>
<g>
	<path class="st0" d="M522.4,620.8c-43.5,0-86.9,0-130.4,0c1-0.3,2-0.5,3-0.8c5.6-1.7,11.4-2.8,16.7-5.1c6.6-2.9,9.4-9.9,7.5-16.7
		c-1.7-6.1-7.5-9.9-14.5-9.5c-2.1,0.1-4.2,1-6.3,1.1c-5.4,0.3-10.8,0.7-16.2,0.4c-3.3-0.2-5.4-2.8-6.1-6.1c-0.4-2.2-0.6-4.5-0.6-6.7
		c0-24.5,0-49.1,0-73.6c0-1.4,0.1-2.8,0.2-4.5c9.4,0,18.5,0.1,27.6,0c9.1-0.1,15.5-8.2,13.8-17.1c-1.3-7.2-6.6-11.7-14.4-11.8
		c-8.9-0.1-17.8,0-27.2,0c0-6.1,0-11.8,0-17.5c0-4.3-1.7-7.6-5.7-9.2c-3.9-1.6-7.3-0.4-10.2,2.5c-12.8,12.4-25.6,24.9-38.4,37.3
		c-3,2.9-3.8,7.4-2.2,11.1c1.7,3.8,4.9,4.9,8.8,4.9c4.9-0.1,9.8,0,15.1,0c0,3.3,0,6.2,0,9.1c0,25.6-0.3,51.2,0.3,76.8
		c0.4,18.7,11.9,31.1,30.3,34.2c2.7,0.5,5.4,1,8.2,1.4c-43.5,0-86.9,0-130.4,0c1.3-0.3,2.5-0.6,3.8-0.7c22.8-2.6,40.8-13.2,53-32.9
		c9.3-15.1,12.1-31.7,11-49.1c-1.6-25.6-11.8-46.6-34.3-60.2c-18-10.9-37.7-12.5-57.9-8.4c-22.5,4.7-38.8,17.4-48.6,38.3
		c-7.8,16.7-8.8,34.4-6.2,52.4c4,28.4,24.1,50.9,51.6,57.9c4.9,1.2,9.9,1.9,14.8,2.8c-46.4,0-92.8,0-139.2,0
		c0.7-0.2,1.4-0.6,2.2-0.7c13.2-1.5,25-6.5,35.2-14.9c16-13.2,24.8-30.2,26.7-50.9c1.8-19.3-0.7-37.7-11.4-54.4
		c-19.7-30.6-58.9-41.3-89.7-24.5c-3.9,2.1-7.6,4.8-11.9,7.6c0-1.8,0-3.3,0-4.7c0-17.6,0-35.2,0-52.8c0-6.5-2.4-11.7-8.2-14.9
		c-11.6-6.3-24.4,1.7-24.5,15.3c0,41.9,0,83.7,0,125.6c0,17.1-0.1,34.1,0,51.2c0.1,12,10.9,19.6,22.1,15.7
		c6.1-2.1,9.3-6.8,10.7-13.2c1.5,1,2.6,1.9,3.8,2.7c7.4,5.4,15.5,9.4,24.5,11.3c3.1,0.7,6.2,1.2,9.3,1.8c-29.3,0-58.7,0-88,0
		C0,413.9,0,206.9,0,0c153.6,0,307.2,0,460.8,0c-1.5,0.3-3,0.7-4.6,0.8c-14.3,0.9-28.2,3.6-41.8,8.4c-19.1,6.7-34.8,18.8-50.4,31.1
		c-3.7,2.9-7.2,6-10.3,8.6c-1.2-6.6-1.5-13.5-3.8-19.5c-10-26-39.2-31-59.2-21.7c-15.9,7.4-23.2,20.8-23.2,38.3
		c0.1,60.8-0.4,121.6,0.3,182.4c0.2,13-2.6,23.1-12.7,31.4c-11.3,9.3-21.7,19.8-33.5,28.4c-21.9,16.1-47,19.7-73.4,16.1
		c-24.1-3.3-39.1-17.3-45.1-40.4c-2.7-10.3-4.2-21.3-4.3-31.9c-0.4-62.4-0.2-124.8-0.2-187.2c0-8.8-2-16.9-7.1-24.1
		C81.5,6.1,63.3,0.1,46,5.6C28.8,11,17.7,26.2,17.7,44.4c0,64.3-0.2,128.5,0.2,192.8c0.1,12.7,1.4,25.6,3.9,38.1
		c6.4,31,20.5,57.8,45.1,78.5c19.9,16.7,42.9,25.4,68.6,27.3c28.2,2.1,55.7-0.7,81.5-13c16.5-7.8,30.6-19.2,44.6-30.8
		c1.8-1.5,3.5-3,5.6-4.8c0.4,4.7,0.4,8.8,1.1,12.7c4.2,21.9,23.7,35.4,47.5,33.1c21.5-2.1,36.9-19.2,36.9-41
		c0-65.7,0-131.5,0.1-197.2c0-2.4,1-5.4,2.6-7c9.4-9.8,18.8-19.6,28.9-28.7c24.8-22.7,54.2-31.3,87.5-26.7
		c18.5,2.5,32.9,11,41.1,28.4c6.3,13.4,8.6,27.7,8.6,42.3c0.1,63.2,0,126.4,0,189.6c0,22.8,17.5,40.5,40.1,40.5
		c22.8,0,40.8-17.7,40.8-40.3c0-65.7,0.1-131.5,0-197.2c0-19.8-3.3-39-10.5-57.4c-17-43.1-46.9-71.3-93.1-80.6
		c-6.5-1.3-13.1-1.9-19.7-2.8c47.2,0,94.4,0,141.6,0c0,206.9,0,413.9,0,620.8c-8.3,0-16.5,0-24.8,0c5.6-3.9,7.2-7.4,5.8-12.2
		c-1.4-4.8-4.6-6.6-11.7-6.6c-13.3,0-26.7,0-40,0c-1.3,0-2.7,0-3.9-0.5c-9.3-4-14.8-14.8-12.6-24.7c0.8-3.9,3-6.5,6.7-7.7
		c2.3-0.7,4.7-1.3,7-1.3c14.9-0.2,29.9-0.2,44.8-0.3c5,0,8.4-2.2,9.7-6.2c2.1-6.5-2.2-12.5-9.2-12.6c-13.2-0.1-26.4,0-39.6,0
		c-8.7,0-17-5.9-19.1-14.4c-3.1-12.6,1.1-19.5,14.5-19.9c1.2,0,2.4,0,3.6,0c13.5,0,26.9,0.1,40.4-0.1c6-0.1,9.8-3.9,9.9-9.3
		c0-5.6-3.9-9.4-10-9.5c-7.2-0.1-14.4,0-21.6,0c-8.7,0-17.3-0.2-26,0.2c-14,0.7-25.2,8.6-28,19.9c-3.2,12.8-0.6,24.3,9,33.8
		c1.1,1.1,2.4,2,3.9,3.3c-8.9,5.8-13.9,13.3-14.2,23.5c-0.3,9.7,2.9,18.2,9.9,25.3c-6.4,2.1-9.5,5.8-9.1,10.5
		C516.5,616.3,519.4,618.6,522.4,620.8z M566.5,467.8c0-1.5,0-2.9,0-4.3c0-15.1,0-30.1,0-45.2c0-7.1-3.6-10.5-10.7-10.3
		c-2.5,0.1-5.1,0.4-7.5,0.8c-16.4,2.8-29.1,14.7-32,30c-3.4,17.9,2.6,33.9,16.8,42c15.3,8.7,31.5,9.3,47.7,2.7
		c10.2-4.1,17-12,20-22.6c4.5-15.8,3.4-31.1-5-45.5c-1.8-3.1-4.4-5-8.1-4.8c-3.3,0.3-6.1,2-6.8,5.2c-0.5,2.5-0.4,5.7,0.6,8
		c3.5,8.2,4.8,16.6,3.6,25.3C583.5,459.4,576.2,467,566.5,467.8z M467.4,620.3c13.2,1.3,25.3-9.1,25.3-23.7
		c0-14.3-10.2-24.2-24.9-24.2c-14.7,0-24.6,9.6-24.6,23.9C443.1,610.8,452.6,620.2,467.4,620.3z"/>
	<path class="st1" d="M462.3,31c5.9,0.8,11.9,1.3,17.7,2.5c41.6,8.4,68.6,33.8,83.8,72.6c6.5,16.6,9.4,33.9,9.5,51.7
		c0.1,59.2,0,118.3,0,177.5c0,20.4-16.2,36.3-36.7,36.3c-20.3,0-36.1-15.9-36.1-36.4c0-56.9,0-113.8,0-170.6c0-13.2-2.1-26-7.8-38.1
		c-7.4-15.7-20.3-23.3-37-25.6c-30-4.1-56.4,3.6-78.7,24.1c-9,8.2-17.5,17.1-26,25.8c-1.4,1.5-2.3,4.2-2.4,6.3
		c-0.1,59.2-0.1,118.3-0.1,177.5c0,19.6-13.9,35-33.2,36.9c-21.5,2.1-39-10-42.8-29.8c-0.7-3.5-0.7-7.1-1-11.4c-1.9,1.6-3.4,3-5,4.3
		c-12.6,10.4-25.3,20.7-40.1,27.7c-23.3,11.1-48,13.6-73.4,11.7c-23.1-1.7-43.9-9.6-61.7-24.6c-22.2-18.6-34.8-42.8-40.6-70.6
		c-2.3-11.2-3.5-22.8-3.6-34.2C46.8,186.7,47,128.9,47,71c0-16.4,10-30.1,25.5-35c15.5-4.9,31.9,0.5,41.1,13.6
		c4.6,6.5,6.4,13.8,6.4,21.7c0,56.2-0.2,112.3,0.2,168.5c0.1,9.6,1.4,19.4,3.8,28.7c5.4,20.8,18.8,33.4,40.6,36.4
		c23.8,3.2,46.4-0.1,66.1-14.5c10.6-7.8,19.9-17.2,30.1-25.6c9.1-7.5,11.6-16.5,11.4-28.3c-0.6-54.7-0.2-109.4-0.3-164.2
		c0-15.8,6.5-27.8,20.9-34.5c18-8.3,44.3-3.9,53.3,19.5c2.1,5.5,2.3,11.6,3.4,17.6c2.8-2.4,6-5.1,9.3-7.8c14-11.1,28.2-22,45.4-28
		c12.2-4.3,24.7-6.7,37.6-7.5c1.4-0.1,2.7-0.5,4.1-0.7C451.3,31,456.8,31,462.3,31z"/>
	<path class="st1" d="M110.2,589.8c-2.8-0.5-5.6-1-8.4-1.6c-8.1-1.7-15.3-5.4-22-10.2c-1-0.7-2.1-1.5-3.4-2.4
		c-1.3,5.8-4.2,10-9.6,11.9c-10.1,3.5-19.8-3.3-19.9-14.1c-0.1-15.4,0-30.7,0-46.1c0-37.7,0-75.3,0-113c0-12.2,11.6-19.4,22-13.7
		c5.3,2.9,7.4,7.6,7.4,13.4c0,15.8,0,31.7,0,47.5c0,1.3,0,2.5,0,4.2c3.9-2.5,7.1-4.9,10.7-6.8c27.7-15.1,63-5.5,80.7,22.1
		c9.7,15,11.9,31.6,10.3,49c-1.7,18.6-9.6,34-24,45.8c-9.2,7.6-19.8,12-31.7,13.4c-0.7,0.1-1.3,0.4-2,0.6
		C117,589.8,113.6,589.8,110.2,589.8z M149.4,520.6c-0.3-3.5-0.5-6.9-1-10.4c-2.3-14.4-9.9-24.7-24.2-28.8
		c-18.4-5.4-34,1.1-46.8,13.7c-0.7,0.7-1,2.2-1,3.3c-0.1,14.9-0.1,29.7,0,44.6c0,1.3,0.6,2.9,1.5,3.7c10.3,10,22.4,16,37.2,14.9
		c13.7-1,24.2-7.3,30.2-19.9C148.3,535.1,149.2,527.9,149.4,520.6z"/>
	<path class="st1" d="M245.6,589.8c-4.4-0.8-8.9-1.4-13.3-2.5c-24.8-6.3-42.8-26.5-46.4-52.1c-2.3-16.2-1.5-32.1,5.6-47.1
		c8.8-18.8,23.5-30.3,43.7-34.5c18.2-3.8,35.9-2.3,52.1,7.5c20.3,12.2,29.4,31.2,30.8,54.2c1,15.6-1.5,30.6-9.9,44.2
		c-11,17.7-27.1,27.2-47.7,29.6c-1.2,0.1-2.3,0.4-3.5,0.7C253.3,589.8,249.4,589.8,245.6,589.8z M288.7,520.6c0-2,0.1-4.1,0-6.1
		c-0.9-15.8-9.8-28-24.1-33c-21.3-7.5-43.4,3.6-48.9,24.7c-2,7.7-2.1,15.7-1,23.6c2.2,14.4,9.3,25,23.5,30
		c14.5,5.1,27.8,2.6,39.1-7.7C286.5,543.7,289,532.6,288.7,520.6z"/>
	<path class="st1" d="M374.5,589.8c-2.4-0.4-4.9-0.9-7.3-1.3c-16.5-2.8-26.9-14-27.2-30.8c-0.5-23-0.2-46.1-0.2-69.1
		c0-2.6,0-5.2,0-8.2c-4.8,0-9.2-0.1-13.6,0c-3.5,0.1-6.4-0.9-7.9-4.4c-1.5-3.3-0.7-7.3,2-10c11.5-11.2,23-22.4,34.6-33.6
		c2.6-2.6,5.7-3.7,9.2-2.2c3.6,1.5,5.2,4.4,5.1,8.3c0,5.1,0,10.3,0,15.8c8.4,0,16.4-0.1,24.4,0c7,0.1,11.8,4.1,13,10.6
		c1.5,8.1-4.2,15.3-12.4,15.4c-8.1,0.1-16.3,0-24.8,0c-0.1,1.5-0.2,2.8-0.2,4.1c0,22.1,0,44.1,0,66.2c0,2,0.2,4.1,0.6,6.1
		c0.6,3,2.5,5.3,5.5,5.5c4.8,0.3,9.7-0.1,14.6-0.3c1.9-0.1,3.7-0.9,5.6-1c6.3-0.4,11.5,3.1,13,8.6c1.7,6.1-0.7,12.5-6.7,15
		c-4.8,2.1-10,3.1-15.1,4.6c-0.9,0.3-1.8,0.5-2.7,0.7C380.7,589.8,377.6,589.8,374.5,589.8z"/>
	<path class="st1" d="M501.2,589.8c-2.7-2-5.3-4-5.6-7.8c-0.4-4.2,2.4-7.6,8.2-9.5c-6.3-6.4-9.2-14-8.9-22.7
		c0.3-9.1,4.7-15.9,12.7-21.1c-1.4-1.1-2.5-2-3.5-2.9c-8.6-8.5-11-18.9-8.1-30.4c2.6-10.2,12.7-17.3,25.2-17.9
		c7.8-0.4,15.6-0.2,23.4-0.2c6.5,0,13-0.1,19.4,0c5.5,0.1,9,3.5,9,8.6c0,4.9-3.5,8.3-8.9,8.3c-12.1,0.1-24.2,0-36.3,0.1
		c-1.1,0-2.2,0-3.2,0c-12,0.3-15.8,6.5-13.1,17.9c1.8,7.6,9.4,12.9,17.2,12.9c11.9,0,23.8-0.1,35.6,0c6.3,0.1,10.2,5.5,8.3,11.3
		c-1.2,3.6-4.2,5.5-8.7,5.6c-13.4,0.1-26.9,0.1-40.3,0.2c-2.1,0-4.3,0.5-6.3,1.2c-3.3,1-5.3,3.4-6.1,6.9c-1.9,8.9,3,18.7,11.4,22.3
		c1,0.4,2.3,0.4,3.5,0.4c12,0,24,0,36,0c6.4,0,9.3,1.6,10.6,5.9c1.3,4.3-0.2,7.5-5.2,10.9C545.4,589.8,523.3,589.8,501.2,589.8z"/>
	<path class="st1" d="M540.9,452.1c8.8-0.8,15.4-7.6,16.5-16.7c1-7.9-0.1-15.4-3.3-22.8c-0.9-2.1-1-4.9-0.5-7.2
		c0.6-2.9,3.1-4.5,6.2-4.7c3.4-0.3,5.7,1.5,7.3,4.3c7.6,13,8.6,26.8,4.5,40.9c-2.7,9.5-8.8,16.6-18,20.3
		c-14.6,5.9-29.2,5.4-42.9-2.4c-12.8-7.3-18.2-21.6-15.1-37.8c2.6-13.8,14.1-24.5,28.8-27c2.2-0.4,4.5-0.6,6.8-0.7
		c6.4-0.2,9.6,2.9,9.6,9.3c0,13.6,0,27.1,0,40.7C540.9,449.5,540.9,450.8,540.9,452.1z M526.3,415.6c-9.8,0.5-17,9.4-16.5,20
		c0.4,7.3,7,17.2,16.5,16.5C526.3,440,526.3,427.9,526.3,415.6z"/>
	<path class="st1" d="M451.7,589.3c-13.3,0-21.9-8.5-21.9-21.6c0-12.9,8.9-21.5,22.2-21.5c13.3,0,22.4,9,22.4,21.8
		C474.4,581.1,463.6,590.5,451.7,589.3z"/>
	<path class="st0" d="M131.5,544c-0.1,8.1-1.1,16-4.6,23.4c-6.6,14.1-18.3,21-33.5,22.2c-16.4,1.2-29.8-5.4-41.3-16.5
		c-1-1-1.6-2.7-1.6-4.2c-0.1-16.5-0.1-33,0-49.6c0-1.2,0.3-2.8,1.1-3.6c14.3-14,31.6-21.2,52.1-15.2c15.8,4.6,24.3,16,26.8,32
		C131,536.3,131.1,540.2,131.5,544z"/>
	<path class="st0" d="M286.3,544c0.3,13.3-2.5,25.6-12.7,34.9c-12.6,11.5-27.4,14.2-43.5,8.6c-15.7-5.5-23.7-17.3-26.1-33.3
		c-1.3-8.8-1.2-17.6,1.1-26.2c6.2-23.5,30.8-35.8,54.4-27.5c15.9,5.6,25.8,19.2,26.8,36.7C286.4,539.4,286.3,541.7,286.3,544z"/>
	<path class="st0" d="M550.3,427.3c0,13.7,0,27.1,0,40.5c-10.5,0.8-17.9-10.2-18.3-18.3C531.4,437.7,539.4,427.8,550.3,427.3z"/>
</g>
</svg>
