<?xml version="1.0" standalone="no"?>
<!DOCTYPE svg PUBLIC "-//W3C//DTD SVG 20010904//EN"
 "http://www.w3.org/TR/2001/REC-SVG-20010904/DTD/svg10.dtd">
<svg version="1.0" xmlns="http://www.w3.org/2000/svg"
 width="776.000000pt" height="776.000000pt" viewBox="0 0 776.000000 776.000000"
 preserveAspectRatio="xMidYMid meet">
<metadata>
Created by potrace 1.14, written by Peter Selinger 2001-2017
</metadata>
<g transform="translate(0.000000,776.000000) scale(0.100000,-0.100000)"
fill="#000000" stroke="none">
<path d="M5738 7755 c-2 -1 -39 -5 -83 -9 -44 -3 -91 -8 -105 -10 -14 -3 -54
-10 -90 -16 -146 -25 -390 -108 -487 -166 -105 -63 -137 -84 -223 -146 -94
-67 -190 -142 -289 -226 l-51 -44 -1 64 c-1 124 -31 218 -98 308 -33 45 -101
108 -123 115 -10 4 -18 10 -18 14 0 7 -96 48 -135 58 -96 25 -242 22 -336 -7
-175 -53 -323 -224 -346 -400 -5 -36 -8 -636 -8 -1335 l0 -1270 -35 -40 c-85
-97 -304 -308 -400 -385 -89 -71 -233 -172 -250 -176 -3 0 -39 -17 -82 -37
-82 -39 -230 -81 -343 -96 -95 -13 -334 -6 -420 12 -147 31 -234 72 -323 153
-131 118 -215 309 -248 564 -4 30 -8 633 -9 1340 l-2 1285 -22 65 c-22 63 -53
122 -77 147 -7 7 -21 23 -31 36 -27 34 -112 97 -158 117 -105 45 -247 55 -351
25 -181 -51 -331 -211 -362 -384 -11 -58 -10 -2727 1 -2771 3 -14 11 -61 17
-105 32 -242 155 -567 288 -763 243 -359 574 -575 1001 -657 13 -2 49 -7 80
-11 31 -3 70 -8 86 -10 41 -6 324 -6 355 0 14 2 57 7 95 11 112 10 261 43 386
85 131 45 209 81 324 153 141 88 455 329 455 349 0 5 6 8 13 8 8 0 13 -22 14
-71 5 -218 143 -403 354 -473 65 -22 89 -24 189 -22 177 4 270 43 382 159 66
67 111 153 127 241 8 41 11 464 11 1343 l0 1282 59 68 c149 174 348 352 526
474 231 158 539 228 859 195 215 -23 380 -105 483 -241 63 -83 129 -232 148
-335 4 -19 8 -42 10 -50 4 -20 15 -105 20 -160 2 -25 4 -607 5 -1295 1 -1375
-3 -1305 62 -1427 33 -62 114 -148 174 -185 74 -45 145 -65 240 -69 196 -8
358 74 459 231 26 41 61 122 57 132 0 2 4 17 9 35 9 31 13 2641 5 2728 -9 89
-18 156 -21 170 -3 8 -7 31 -10 50 -13 77 -57 236 -91 328 -46 122 -146 321
-166 330 -5 2 -8 9 -8 14 0 6 -25 44 -55 84 -219 291 -517 490 -849 569 -164
39 -234 47 -428 50 -87 1 -159 1 -160 0z"/>
<path d="M386 2649 c-55 -9 -110 -47 -141 -100 -20 -33 -20 -52 -20 -1210 0
-1296 -5 -1201 63 -1266 103 -99 290 -51 330 85 l13 43 37 -28 c147 -113 281
-160 473 -168 337 -12 652 179 808 492 33 66 57 131 67 180 1 6 7 35 14 65 27
119 18 376 -18 518 -27 104 -93 232 -171 330 -210 262 -555 380 -878 299 -100
-25 -181 -62 -270 -126 l-63 -44 0 379 c0 315 -3 387 -15 423 -34 95 -121 144
-229 128z m869 -1133 c74 -15 178 -72 236 -130 108 -107 149 -235 144 -446 -2
-89 -8 -154 -19 -190 -70 -229 -259 -365 -499 -359 -86 2 -166 16 -181 30 -6
5 -18 9 -28 9 -26 0 -127 58 -192 110 -10 8 -34 28 -52 44 l-34 28 0 347 0
348 48 40 c156 131 280 180 446 178 50 0 109 -4 131 -9z"/>
<path d="M6825 2644 c-169 -38 -315 -169 -361 -321 -35 -119 -21 -302 32 -403
64 -125 219 -224 384 -247 125 -18 323 3 368 39 6 6 12 8 12 4 0 -11 84 46
128 88 45 42 109 141 116 179 3 12 5 22 6 22 2 0 7 21 17 65 12 58 8 261 -6
315 -23 86 -80 198 -112 221 -43 30 -96 24 -131 -16 -34 -37 -36 -79 -7 -147
46 -106 57 -265 25 -361 -20 -58 -78 -121 -138 -151 -82 -39 -77 -61 -75 304
1 179 0 325 -3 325 -3 0 -6 10 -7 23 -1 12 -16 34 -33 48 -27 23 -41 27 -93
26 -34 0 -89 -6 -122 -13z m55 -483 l0 -259 -32 7 c-48 11 -89 35 -124 73 -54
56 -68 95 -69 178 0 83 24 146 74 195 33 31 99 64 129 65 l22 0 0 -259z"/>
<path d="M4543 2219 c-12 -4 -77 -62 -145 -128 -68 -66 -185 -180 -260 -253
-76 -74 -143 -149 -151 -166 -18 -44 -10 -87 23 -120 29 -30 42 -32 195 -35
l80 -2 1 -540 c0 -297 4 -561 8 -587 21 -149 109 -269 240 -327 58 -27 76 -32
146 -46 14 -3 72 -7 130 -9 85 -3 122 0 196 19 174 44 243 105 239 210 -5 131
-116 193 -270 151 -61 -16 -181 -14 -220 5 -60 29 -59 24 -60 599 l0 525 168
1 c195 2 240 7 278 35 73 52 95 159 50 242 -43 78 -82 90 -320 91 l-176 1 -1
131 c-1 103 -4 135 -18 155 -27 42 -89 65 -133 48z"/>
<path d="M2988 1915 c-2 -1 -30 -5 -63 -8 -91 -10 -208 -39 -232 -59 -7 -6
-13 -8 -13 -4 0 7 -104 -47 -165 -86 -58 -36 -174 -155 -219 -222 -37 -57
-105 -193 -111 -225 -1 -9 -8 -36 -15 -61 -33 -120 -43 -311 -26 -455 29 -228
156 -467 317 -593 109 -85 269 -161 375 -177 16 -2 56 -9 89 -13 64 -10 245
-8 309 3 66 11 77 14 135 31 207 60 400 219 506 419 128 242 151 569 60 850
-82 252 -285 461 -530 545 -62 21 -64 22 -160 40 -52 10 -249 22 -257 15z
m219 -400 c165 -48 279 -152 338 -310 14 -36 24 -67 24 -70 -1 -3 2 -33 7 -68
21 -178 -15 -363 -92 -468 -99 -136 -240 -209 -409 -214 -148 -3 -282 49 -380
149 -104 106 -145 220 -150 410 -4 196 37 324 142 436 122 132 337 188 520
135z"/>
<path d="M6817 1564 c-1 -1 -23 -5 -49 -8 -97 -13 -185 -58 -246 -125 -60 -67
-85 -151 -77 -263 9 -113 45 -196 120 -271 l47 -48 -51 -45 c-90 -81 -121
-158 -115 -286 4 -92 32 -172 86 -240 23 -28 34 -49 26 -45 -9 3 -32 -5 -51
-19 -70 -47 -71 -145 -3 -192 31 -21 35 -22 486 -21 435 0 455 1 486 20 69 42
68 150 -2 196 -23 15 -62 17 -334 17 l-307 1 -40 28 c-84 58 -126 131 -127
221 -1 102 36 154 124 172 19 4 175 7 347 8 299 1 313 2 340 22 38 28 53 61
49 106 -5 46 -32 84 -70 98 -18 6 -146 10 -329 10 l-300 0 -46 37 c-25 21 -52
44 -59 53 -66 79 -78 220 -23 284 40 46 67 50 412 52 278 2 330 4 357 18 76
39 79 155 5 203 -23 16 -60 17 -340 18 -173 0 -315 -1 -316 -1z"/>
<path d="M5750 593 c-94 -24 -170 -95 -200 -187 -21 -65 -15 -168 13 -229 56
-122 161 -178 315 -171 107 6 208 73 252 169 25 55 32 164 14 223 -46 158
-214 241 -394 195z"/>
</g>
</svg>
